<svg width="38" height="37" viewBox="0 0 38 37" fill="none" xmlns="http://www.w3.org/2000/svg">
<rect x="0.857117" y="32.3715" width="4.54286" height="4.54286" fill="#5A8C87"/>
<rect x="11.4571" y="32.3714" width="4.54286" height="4.54286" fill="#5A8C87"/>
<rect x="32.6571" y="32.3714" width="4.54286" height="4.54286" fill="#5A8C87"/>
<rect x="22.0571" y="32.3714" width="4.54286" height="4.54286" fill="#5A8C87"/>
<rect x="0.857117" y="11.1714" width="4.54286" height="4.54286" fill="#5A8C87"/>
<rect x="11.4571" y="11.1714" width="4.54286" height="4.54286" fill="#5A8C87"/>
<rect x="32.6571" y="11.1714" width="4.54286" height="4.54286" fill="#5A8C87"/>
<rect x="22.0571" y="11.1714" width="4.54286" height="4.54286" fill="#5A8C87"/>
<rect x="0.857117" y="0.571442" width="4.54286" height="4.54286" fill="#5A8C87"/>
<rect x="11.4571" y="0.571472" width="4.54286" height="4.54286" fill="#5A8C87"/>
<rect x="32.6571" y="0.571472" width="4.54286" height="4.54286" fill="#5A8C87"/>
<rect x="22.0571" y="0.571472" width="4.54286" height="4.54286" fill="#5A8C87"/>
<rect x="0.857117" y="21.7715" width="4.54286" height="4.54286" fill="#5A8C87"/>
<rect x="11.4571" y="21.7715" width="4.54286" height="4.54286" fill="#5A8C87"/>
<rect x="32.6571" y="21.7715" width="4.54286" height="4.54286" fill="#5A8C87"/>
<rect x="22.0571" y="21.7715" width="4.54286" height="4.54286" fill="#5A8C87"/>
</svg>
